ffmpeg version 3.4.8-0ubuntu0.2 Copyright (c) 2000-2020 the FFmpeg developers
  built with gcc 7 (Ubuntu 7.5.0-3ubuntu1~18.04)
  configuration: --prefix=/usr --extra-version=0ubuntu0.2 --toolchain=hardened --libdir=/usr/lib/x86_64-linux-gnu --incdir=/usr/include/x86_64-linux-gnu --enable-gpl --disable-stripping --enable-avresample --enable-avisynth --enable-gnutls --enable-ladspa --enable-libass --enable-libbluray --enable-libbs2b --enable-libcaca --enable-libcdio --enable-libflite --enable-libfontconfig --enable-libfreetype --enable-libfribidi --enable-libgme --enable-libgsm --enable-libmp3lame --enable-libmysofa --enable-libopenjpeg --enable-libopenmpt --enable-libopus --enable-libpulse --enable-librubberband --enable-librsvg --enable-libshine --enable-libsnappy --enable-libsoxr --enable-libspeex --enable-libssh --enable-libtheora --enable-libtwolame --enable-libvorbis --enable-libvpx --enable-libwavpack --enable-libwebp --enable-libx265 --enable-libxml2 --enable-libxvid --enable-libzmq --enable-libzvbi --enable-omx --enable-openal --enable-opengl --enable-sdl2 --enable-libdc1394 --enable-libdrm --enable-libiec61883 --enable-chromaprint --enable-frei0r --enable-libopencv --enable-libx264 --enable-shared
  libavutil      55. 78.100 / 55. 78.100
  libavcodec     57.107.100 / 57.107.100
  libavformat    57. 83.100 / 57. 83.100
  libavdevice    57. 10.100 / 57. 10.100
  libavfilter     6.107.100 /  6.107.100
  libavresample   3.  7.  0 /  3.  7.  0
  libswscale      4.  8.100 /  4.  8.100
  libswresample   2.  9.100 /  2.  9.100
  libpostproc    54.  7.100 / 54.  7.100
Input #0, mpeg, from '../.././Samples/Plumiferos_persecucion_casting.mpg':
  Duration: 00:03:38.00, start: 0.364767, bitrate: 1391 kb/s
    Stream #0:0[0x1e0]: Video: mpeg1video, yuv420p(tv), 352x288 [SAR 178:163 DAR 1958:1467], 1150 kb/s, 25 fps, 25 tbr, 90k tbn, 25 tbc
    Stream #0:1[0x1c0]: Audio: mp2, 44100 Hz, stereo, s16p, 224 kb/s
Stream mapping:
  Stream #0:0 -> #0:0 (mpeg1video (native) -> h264 (libx264))
  Stream #0:1 -> #0:1 (mp2 (native) -> aac (native))
Press [q] to stop, [?] for help
[libx264 @ 0x5591bb334480] using SAR=178/163
[libx264 @ 0x5591bb334480] using cpu capabilities: MMX2 SSE2Fast SSSE3 SSE4.2 AVX FMA3 BMI2 AVX2
[libx264 @ 0x5591bb334480] profile High, level 1.3
[libx264 @ 0x5591bb334480] 264 - core 152 r2854 e9a5903 - H.264/MPEG-4 AVC codec - Copyleft 2003-2017 - http://www.videolan.org/x264.html - options: cabac=1 ref=3 deblock=1:0:0 analyse=0x3:0x113 me=hex subme=7 psy=1 psy_rd=1.00:0.00 mixed_ref=1 me_range=16 chroma_me=1 trellis=1 8x8dct=1 cqm=0 deadzone=21,11 fast_pskip=1 chroma_qp_offset=-2 threads=6 lookahead_threads=1 sliced_threads=0 nr=0 decimate=1 interlaced=0 bluray_compat=0 constrained_intra=0 bframes=3 b_pyramid=2 b_adapt=1 b_bias=0 direct=1 weightb=1 open_gop=0 weightp=2 keyint=250 keyint_min=25 scenecut=40 intra_refresh=0 rc_lookahead=40 rc=crf mbtree=1 crf=23.0 qcomp=0.60 qpmin=0 qpmax=69 qpstep=4 ip_ratio=1.40 aq=1:1.00
Output #0, mov, to '/home/aleksandr/Pract/Samples/Plumiferos_persecucion_casting.mpg_tc/output3.mov':
  Metadata:
    encoder         : Lavf57.83.100
    Stream #0:0: Video: h264 (libx264) (avc1 / 0x31637661), yuv420p(progressive), 352x288 [SAR 178:163 DAR 1958:1467], q=-1--1, 25 fps, 12800 tbn, 25 tbc
    Metadata:
      encoder         : Lavc57.107.100 libx264
    Side data:
      cpb: bitrate max/min/avg: 0/0/0 buffer size: 0 vbv_delay: -1
    Stream #0:1: Audio: aac (LC) (mp4a / 0x6134706D), 44100 Hz, stereo, fltp, 128 kb/s
    Metadata:
      encoder         : Lavc57.107.100 aac
frame=  198 fps=0.0 q=28.0 size=       0kB time=00:00:07.68 bitrate=   0.0kbits/s speed=15.3x    frame=  348 fps=348 q=28.0 size=     256kB time=00:00:13.63 bitrate= 153.9kbits/s speed=13.6x    frame=  434 fps=289 q=28.0 size=     512kB time=00:00:17.18 bitrate= 244.1kbits/s speed=11.4x    frame=  527 fps=263 q=28.0 size=    1024kB time=00:00:20.87 bitrate= 401.9kbits/s speed=10.4x    frame=  637 fps=254 q=28.0 size=    1280kB time=00:00:25.26 bitrate= 415.1kbits/s speed=10.1x    frame=  740 fps=246 q=28.0 size=    1536kB time=00:00:29.53 bitrate= 426.0kbits/s speed=9.83x    frame=  849 fps=242 q=28.0 size=    1792kB time=00:00:33.71 bitrate= 435.4kbits/s speed=9.62x    frame=  961 fps=240 q=28.0 size=    2048kB time=00:00:38.19 bitrate= 439.2kbits/s speed=9.53x    frame= 1068 fps=237 q=28.0 size=    2304kB time=00:00:42.65 bitrate= 442.5kbits/s speed=9.46x    frame= 1182 fps=236 q=28.0 size=    2560kB time=00:00:47.06 bitrate= 445.6kbits/s speed=9.39x    frame= 1292 fps=234 q=28.0 size=    2816kB time=00:00:51.47 bitrate= 448.1kbits/s speed=9.33x    frame= 1528 fps=254 q=28.0 size=    3072kB time=00:01:00.83 bitrate= 413.7kbits/s speed=10.1x    frame= 1699 fps=261 q=28.0 size=    3328kB time=00:01:07.73 bitrate= 402.5kbits/s speed=10.4x    frame= 1853 fps=264 q=28.0 size=    3584kB time=00:01:13.88 bitrate= 397.4kbits/s speed=10.5x    frame= 1978 fps=263 q=28.0 size=    3584kB time=00:01:18.87 bitrate= 372.2kbits/s speed=10.5x    frame= 2095 fps=261 q=28.0 size=    3840kB time=00:01:23.49 bitrate= 376.7kbits/s speed=10.4x    frame= 2203 fps=259 q=28.0 size=    4096kB time=00:01:27.86 bitrate= 381.9kbits/s speed=10.3x    frame= 2327 fps=258 q=28.0 size=    4352kB time=00:01:32.87 bitrate= 383.8kbits/s speed=10.3x    frame= 2463 fps=259 q=28.0 size=    4608kB time=00:01:38.29 bitrate= 384.1kbits/s speed=10.3x    frame= 2601 fps=259 q=28.0 size=    4608kB time=00:01:43.76 bitrate= 363.8kbits/s speed=10.3x    frame= 2750 fps=261 q=28.0 size=    4864kB time=00:01:49.76 bitrate= 363.0kbits/s speed=10.4x    frame= 2922 fps=265 q=28.0 size=    5120kB time=00:01:56.61 bitrate= 359.7kbits/s speed=10.6x    frame= 3099 fps=269 q=28.0 size=    5120kB time=00:02:03.73 bitrate= 339.0kbits/s speed=10.7x    frame= 3251 fps=270 q=28.0 size=    5376kB time=00:02:09.77 bitrate= 339.4kbits/s speed=10.8x    frame= 3390 fps=271 q=28.0 size=    5632kB time=00:02:15.37 bitrate= 340.8kbits/s speed=10.8x    frame= 3522 fps=270 q=28.0 size=    5888kB time=00:02:20.68 bitrate= 342.8kbits/s speed=10.8x    frame= 3642 fps=269 q=28.0 size=    6144kB time=00:02:25.54 bitrate= 345.8kbits/s speed=10.8x    frame= 3812 fps=272 q=28.0 size=    6400kB time=00:02:32.20 bitrate= 344.5kbits/s speed=10.8x    frame= 3959 fps=272 q=28.0 size=    6400kB time=00:02:38.17 bitrate= 331.5kbits/s speed=10.9x    frame= 4126 fps=274 q=28.0 size=    6656kB time=00:02:44.83 bitrate= 330.8kbits/s speed=  11x    frame= 4280 fps=275 q=28.0 size=    6912kB time=00:02:50.96 bitrate= 331.2kbits/s speed=  11x    frame= 4419 fps=276 q=28.0 size=    7168kB time=00:02:56.63 bitrate= 332.4kbits/s speed=  11x    frame= 4566 fps=276 q=28.0 size=    7424kB time=00:03:02.41 bitrate= 333.4kbits/s speed=  11x    frame= 4729 fps=278 q=28.0 size=    7680kB time=00:03:08.91 bitrate= 333.0kbits/s speed=11.1x    frame= 4847 fps=276 q=28.0 size=    7936kB time=00:03:13.60 bitrate= 335.8kbits/s speed=  11x    frame= 4969 fps=275 q=28.0 size=    7936kB time=00:03:18.50 bitrate= 327.5kbits/s speed=  11x    frame= 5117 fps=276 q=28.0 size=    8192kB time=00:03:24.42 bitrate= 328.3kbits/s speed=  11x    frame= 5256 fps=276 q=28.0 size=    8448kB time=00:03:30.02 bitrate= 329.5kbits/s speed=  11x    frame= 5398 fps=276 q=28.0 size=    8704kB time=00:03:35.62 bitrate= 330.7kbits/s speed=  11x    frame= 5450 fps=277 q=-1.0 Lsize=    8981kB time=00:03:38.01 bitrate= 337.5kbits/s speed=11.1x    
video:5538kB audio:3268kB subtitle:0kB other streams:0kB global headers:0kB muxing overhead: 1.990901%
[libx264 @ 0x5591bb334480] frame I:37    Avg QP:17.09  size:  8014
[libx264 @ 0x5591bb334480] frame P:1890  Avg QP:21.40  size:  1907
[libx264 @ 0x5591bb334480] frame B:3523  Avg QP:23.01  size:   502
[libx264 @ 0x5591bb334480] consecutive B-frames:  7.3% 11.4% 24.1% 57.2%
[libx264 @ 0x5591bb334480] mb I  I16..4: 37.3% 44.3% 18.3%
[libx264 @ 0x5591bb334480] mb P  I16..4:  1.1%  5.3%  1.3%  P16..4: 19.0% 10.1%  6.8%  0.0%  0.0%    skip:56.4%
[libx264 @ 0x5591bb334480] mb B  I16..4:  0.4%  1.2%  0.2%  B16..8: 14.5%  3.6%  0.9%  direct: 1.1%  skip:78.1%  L0:36.0% L1:47.9% BI:16.2%
[libx264 @ 0x5591bb334480] 8x8 transform intra:64.2% inter:63.7%
[libx264 @ 0x5591bb334480] coded y,uvDC,uvAC intra: 60.2% 59.2% 22.7% inter: 8.2% 7.3% 1.6%
[libx264 @ 0x5591bb334480] i16 v,h,dc,p: 52% 30%  8% 11%
[libx264 @ 0x5591bb334480] i8 v,h,dc,ddl,ddr,vr,hd,vl,hu: 18% 25% 22%  4%  5%  5%  7%  6% 10%
[libx264 @ 0x5591bb334480] i4 v,h,dc,ddl,ddr,vr,hd,vl,hu: 21% 29% 21%  4%  5%  5%  7%  4%  5%
[libx264 @ 0x5591bb334480] i8c dc,h,v,p: 51% 28% 17%  4%
[libx264 @ 0x5591bb334480] Weighted P-Frames: Y:1.5% UV:0.5%
[libx264 @ 0x5591bb334480] ref P L0: 67.4% 13.9% 13.0%  5.7%  0.0%
[libx264 @ 0x5591bb334480] ref B L0: 88.6%  8.8%  2.6%
[libx264 @ 0x5591bb334480] ref B L1: 97.4%  2.6%
[libx264 @ 0x5591bb334480] kb/s:208.07
[aac @ 0x5591bb34bd40] Qavg: 5405.062
	Command being timed: "/usr/bin/ffmpeg -i ../.././Samples/Plumiferos_persecucion_casting.mpg -c:v libx264 -f mov /home/aleksandr/Pract/Samples/Plumiferos_persecucion_casting.mpg_tc/output3.mov"
	User time (seconds): 57.11
	System time (seconds): 0.75
	Percent of CPU this job got: 293%
	Elapsed (wall clock) time (h:mm:ss or m:ss): 0:19.73
	Average shared text size (kbytes): 0
	Average unshared data size (kbytes): 0
	Average stack size (kbytes): 0
	Average total size (kbytes): 0
	Maximum resident set size (kbytes): 79224
	Average resident set size (kbytes): 0
	Major (requiring I/O) page faults: 0
	Minor (reclaiming a frame) page faults: 13143
	Voluntary context switches: 70984
	Involuntary context switches: 25220
	Swaps: 0
	File system inputs: 0
	File system outputs: 17992
	Socket messages sent: 0
	Socket messages received: 0
	Signals delivered: 0
	Page size (bytes): 4096
	Exit status: 0
